<svg width="241" height="174" viewBox="0 0 241 174" fill="none" xmlns="http://www.w3.org/2000/svg">
<path d="M103.985 35.864C101.283 35.5214 96.368 34.1601 93.5508 33.7408C93.4996 33.7323 93.4483 33.724 93.397 33.7157C92.7334 33.6055 92.101 33.5326 91.3589 33.4631C89.586 33.328 87.2025 33.0428 82.1434 33.0805C80.681 33.2246 79.2263 33.4215 77.7782 33.6703C68.0937 35.3236 58.8725 39.4891 51.1951 45.8108C46.4747 49.6852 42.3819 54.3071 39.1312 59.5322C39.0323 59.7105 38.9328 59.8923 38.8335 60.0764C36.8717 63.6279 35.0894 68.326 34.0263 71.3067C32.6416 75.0932 31.9673 77.7881 31.4603 80.013C29.3368 92.8802 31.9543 106.68 39.0638 117.91C40.5104 120.211 42.1229 122.394 43.9042 124.463C44.8568 125.569 45.8362 126.619 46.8707 127.643C49.5975 130.343 52.6074 132.752 55.8336 134.815C57.7679 135.927 59.6866 136.841 61.4918 137.594C64.0315 138.655 66.3487 139.401 68.2563 140.014C72.8385 141.519 78.1816 142.784 82.248 143.258C82.911 143.34 83.5389 143.406 84.1206 143.457C87.3685 143.544 90.6179 143.346 93.817 142.871C94.0371 142.893 94.2591 142.916 94.4855 142.938C97.3087 143.19 100.765 142.63 105.872 140.859C108.095 140.073 110.621 139.037 113.492 137.586C115.34 136.642 116.37 136.302 117.232 136.019C117.483 135.935 117.722 135.853 117.952 135.761C118.746 135.444 119.397 134.807 120.137 134.037C121.089 133.04 122.189 131.832 124.003 130.671C124.212 130.536 124.415 130.402 124.613 130.268C129.889 126.62 131.217 123.79 132.21 121.84C132.507 121.232 132.768 120.675 133.07 120.139C134.056 118.409 135.751 116.154 137.039 114.408C138.087 113.034 139.373 109.833 139.988 107.315C140.228 106.366 140.671 105.131 141.122 103.65C141.588 102.12 142.062 100.323 142.332 98.3591C142.981 93.3934 142.89 90.7437 142.853 88.6304C142.834 88.0272 142.809 87.4668 142.774 86.9075C142.667 85.1398 142.48 82.9569 142.143 80.7718C141.748 78.1569 141.126 75.5442 140.491 73.6166C139.371 68.4812 137.536 63.4794 135.01 58.8166C133.714 56.4149 132.666 53.9793 132.158 51.8474C131.664 49.733 131.777 48.0799 132.71 47.2652C133.636 46.4555 135.346 46.5639 137.427 47.7382C139.512 48.921 141.754 51.1129 143.467 53.8379C146.913 59.2998 149.556 65.3186 151.218 71.6197C153.249 79.2914 153.82 87.3815 152.824 95.2882C152.131 100.817 150.709 106.259 148.611 111.418C148.396 111.949 148.172 112.478 147.942 113.004C146.403 117.435 144.26 121.67 142.468 124.469C140.994 126.787 139.619 128.268 138.426 129.496C137.598 130.345 136.86 131.06 136.159 131.847C135.782 132.27 135.273 132.844 134.641 133.522C133.632 134.605 132.322 135.936 130.754 137.332C128.305 139.522 125.235 141.808 122.088 143.543C119.804 144.814 117.026 146.029 114.312 146.988C110.437 148.378 106.734 149.208 104.925 149.821C101.746 150.922 97.9119 151.532 94.5292 151.778C91.2977 152.026 88.4791 151.976 86.8714 152.176C84.9484 152.411 83.295 152.254 80.8839 151.885C79.2114 151.62 77.1703 151.254 74.4263 150.666C71.2573 149.976 69.1008 149.167 67.2979 148.443C64.7671 147.404 62.9228 146.543 60.0276 145.54C56.8094 144.418 53.5803 142.802 51.295 141.164C50.2468 140.418 49.0486 139.592 47.8234 138.676C46.2103 137.472 44.5686 136.114 43.2217 134.719C42.11 133.568 41.3531 132.472 40.702 131.488C40.5016 131.184 40.3114 130.89 40.1251 130.608C39.6358 130.084 39.1531 129.55 38.677 129.007C38.3216 128.601 37.9719 128.193 37.6278 127.781C37.4686 127.649 37.3002 127.511 37.1256 127.366C36.2548 126.642 35.1762 125.701 34.0746 124.38C32.3207 122.267 31.1691 120.142 30.0866 117.858C29.247 116.078 28.4511 114.199 27.5039 112.062C26.858 110.606 26.1206 108.939 25.4665 107.257C24.4866 104.755 23.7048 102.203 23.4187 100.376C23.3101 99.6922 23.346 99.0801 23.3901 98.4786C23.3905 98.4759 23.391 98.4732 23.3914 98.4705C23.3944 98.4296 23.3972 98.3887 23.4002 98.3479C22.5064 93.9701 22.0546 89.4892 22.0612 84.996C22.0346 84.6057 22.0123 84.2108 21.9939 83.819C21.9014 81.9042 21.9123 80.0339 21.8151 78.7921C21.7011 77.4479 22.0247 74.1079 22.7429 70.6402C23.2025 68.3675 23.8177 66.0433 24.35 64.1439C24.6604 63.0316 25.2048 62.0717 25.7874 61.1026C26.3316 60.1983 26.9058 59.2921 27.3787 58.2233C27.6161 57.6872 27.8382 57.0964 28.0879 56.4648C28.3073 55.9096 28.5483 55.3226 28.834 54.7266C29.0985 54.1755 29.842 53.0219 30.8647 51.6033C31.4943 50.7294 32.239 49.7425 33.0286 48.7378C34.9157 45.9131 37.0215 43.2418 39.3321 40.7419C39.7284 40.1392 40.0432 39.5786 40.2382 39.0722C40.379 38.7082 40.4603 38.361 40.5483 38.0039C40.6684 37.5181 40.7985 37.0138 41.1003 36.4388C41.336 35.9895 41.7145 35.5617 42.0488 35.3669C42.0641 35.358 42.0793 35.3496 42.0944 35.3416C42.2327 35.2682 42.3616 35.2319 42.4795 35.1989C42.6292 35.157 42.7626 35.1201 42.8781 35.0197C42.9614 34.9473 43.0189 34.8376 43.0908 34.7034C43.2056 34.4894 43.3569 34.2111 43.7003 33.9252C44.9707 32.8659 46.5132 31.7403 48.0542 30.7181C49.7738 29.5729 51.5056 28.545 52.878 27.715C54.4156 26.7786 56.7696 25.7259 59.1733 24.8432C60.8525 24.2216 62.5466 23.6776 64.0029 23.2063C65.4246 22.7448 66.8757 22.1757 68.3024 21.6716C70.0137 21.0654 71.6949 20.5535 73.1805 20.4022C73.4806 20.3717 73.8833 20.4819 74.3828 20.6262C74.7368 20.7286 75.1418 20.8479 75.5923 20.9484C77.4275 20.6331 79.2738 20.4024 81.1275 20.255C81.1905 20.2239 81.2556 20.1923 81.3208 20.1603C81.3218 20.1596 81.3229 20.1589 81.3239 20.1582C82.7861 19.439 84.902 18.4774 87.8887 19.0004C88.6441 19.1349 89.1126 19.3796 89.5304 19.601C89.9409 19.8191 90.3035 20.0163 90.8441 20.0851C91.4581 20.1636 92.1928 20.0902 92.9996 20.0269C94.1305 19.9373 95.4103 19.8695 96.63 20.2446C96.7132 20.2702 96.8025 20.2981 96.8955 20.3268C97.7773 20.5979 99.0754 21.0245 100.295 21.6996C104.136 22.5924 107.885 23.8429 111.477 25.4212C117.469 28.0506 123.02 31.6002 127.886 35.8482C130.266 37.9192 132.062 40.4125 132.912 42.6093C133.753 44.7993 133.623 46.476 132.71 47.2652C131.791 48.0611 130.168 47.9451 128.171 47.1856C126.16 46.4085 123.922 45.0713 121.75 43.5075C118.219 40.9533 114.408 38.8369 110.427 37.1869C110.212 37.1138 109.996 37.0409 109.782 36.9685C108.187 36.4308 106.618 36.1729 105.059 35.9846C104.701 35.9415 104.343 35.9021 103.985 35.864Z" fill="#B7410E"/>
<mask id="path-3-outside-1_207_101" maskUnits="userSpaceOnUse" x="55" y="65" width="181" height="63" fill="black">
<rect fill="white" x="55" y="65" width="181" height="63"/>
<path d="M63.74 99.34L65.6 102.58C66.76 103.74 67.74 104.56 68.54 105.04C69.34 105.52 70.38 105.76 71.66 105.76C73.22 105.76 74.4 105.44 75.2 104.8C76.04 104.12 76.46 103.22 76.46 102.1C76.42 101.1 75.76 100.2 74.48 99.4C73.24 98.6 71.36 97.64 68.84 96.52C65.4 94.92 62.8 93.22 61.04 91.42C59.28 89.62 58.4 87.38 58.4 84.7C58.44 82.66 59.16 80.94 60.56 79.54C61.96 78.1 63.72 77.04 65.84 76.36C67.96 75.64 70.16 75.28 72.44 75.28C74.24 75.2 76.32 75.34 78.68 75.7C81.04 76.02 82.84 76.44 84.08 76.96V85H78.92L77.3 81.34C76.74 80.66 76.08 80.1 75.32 79.66C74.56 79.22 73.78 79 72.98 79C71.74 79 70.7 79.26 69.86 79.78C69.06 80.26 68.66 80.9 68.66 81.7C68.66 82.74 68.96 83.64 69.56 84.4C70.2 85.16 71.06 85.86 72.14 86.5C73.22 87.1 74.8 87.88 76.88 88.84C80.04 90.28 82.4 91.74 83.96 93.22C85.56 94.7 86.36 96.68 86.36 99.16C86.36 102.8 84.9 105.48 81.98 107.2C79.06 108.88 75.3 109.72 70.7 109.72C68.7 109.72 66.58 109.48 64.34 109C62.14 108.52 60.34 107.88 58.94 107.08V99.34H63.74ZM106.589 75.28C111.149 75.28 114.529 76.24 116.729 78.16C118.929 80.04 120.029 83.1 120.029 87.34V105.04H123.869V108.16C123.069 108.72 121.949 109.14 120.509 109.42C119.109 109.7 117.709 109.84 116.309 109.84C114.829 109.84 113.609 109.56 112.649 109C111.689 108.4 111.149 107.56 111.029 106.48C108.669 108.72 105.829 109.84 102.509 109.84C98.8294 109.84 95.8494 109.02 93.5694 107.38C91.2894 105.7 90.1494 103.38 90.1494 100.42C90.1494 97.78 91.0694 95.56 92.9094 93.76C94.7494 91.96 97.1494 90.62 100.109 89.74C103.109 88.86 106.289 88.42 109.649 88.42V88.06C109.609 85.42 109.129 83.56 108.209 82.48C107.329 81.4 105.729 80.86 103.409 80.86C101.729 80.86 99.9494 81.1 98.0694 81.58C96.2294 82.06 94.7894 82.66 93.7494 83.38L91.7694 78.88C93.2094 77.72 95.3494 76.84 98.1894 76.24C101.069 75.6 103.869 75.28 106.589 75.28ZM109.649 92.92C107.049 92.92 104.889 93.44 103.169 94.48C101.489 95.52 100.649 97.08 100.649 99.16C100.649 100.8 101.049 102.06 101.849 102.94C102.689 103.78 103.909 104.2 105.509 104.2C107.269 104.2 108.649 103.78 109.649 102.94V92.92ZM136.987 86.5C135.707 86.5 134.787 86.74 134.227 87.22C133.667 87.7 133.387 88.4 133.387 89.32C133.387 90.6 133.927 91.78 135.007 92.86C137.447 91.14 140.327 90.28 143.647 90.28C145.847 90.28 147.967 90.92 150.007 92.2C152.047 93.44 153.707 94.94 154.987 96.7C156.307 98.46 156.967 100.02 156.967 101.38C156.967 103.02 156.327 104.76 155.047 106.6C153.807 108.4 152.367 109.96 150.727 111.28L144.907 106.06V105.94C147.187 104.46 148.867 103.2 149.947 102.16C151.027 101.08 151.567 99.96 151.567 98.8C151.567 97.92 151.127 97.22 150.247 96.7C149.407 96.14 148.127 95.86 146.407 95.86C144.127 95.86 142.187 96.54 140.587 97.9C139.027 99.26 138.247 100.92 138.247 102.88C138.247 105.76 139.487 108.36 141.967 110.68C144.447 113.04 148.147 115.56 153.067 118.24L151.447 120.46C147.487 118.5 144.067 116.6 141.187 114.76C138.347 112.96 135.887 110.84 133.807 108.4C131.767 105.96 130.747 103.3 130.747 100.42C130.747 98.66 131.307 97 132.427 95.44C131.307 94.08 130.447 92.78 129.847 91.54C129.247 90.3 128.947 89 128.947 87.64C128.947 82.36 130.987 79.72 135.067 79.72H145.567V75.64H123.427L120.667 70.18V68.86H156.907L159.787 74.38V75.64H153.547V86.5H136.987ZM178.25 75.28C182.81 75.28 186.19 76.24 188.39 78.16C190.59 80.04 191.69 83.1 191.69 87.34V105.04H195.53V108.16C194.73 108.72 193.61 109.14 192.17 109.42C190.77 109.7 189.37 109.84 187.97 109.84C186.49 109.84 185.27 109.56 184.31 109C183.35 108.4 182.81 107.56 182.69 106.48C180.33 108.72 177.49 109.84 174.17 109.84C170.49 109.84 167.51 109.02 165.23 107.38C162.95 105.7 161.81 103.38 161.81 100.42C161.81 97.78 162.73 95.56 164.57 93.76C166.41 91.96 168.81 90.62 171.77 89.74C174.77 88.86 177.95 88.42 181.31 88.42V88.06C181.27 85.42 180.79 83.56 179.87 82.48C178.99 81.4 177.39 80.86 175.07 80.86C173.39 80.86 171.61 81.1 169.73 81.58C167.89 82.06 166.45 82.66 165.41 83.38L163.43 78.88C164.87 77.72 167.01 76.84 169.85 76.24C172.73 75.6 175.53 75.28 178.25 75.28ZM181.31 92.92C178.71 92.92 176.55 93.44 174.83 94.48C173.15 95.52 172.31 97.08 172.31 99.16C172.31 100.8 172.71 102.06 173.51 102.94C174.35 103.78 175.57 104.2 177.17 104.2C178.93 104.2 180.31 103.78 181.31 102.94V92.92ZM200.008 116.62C200.848 116.82 201.548 116.96 202.108 117.04C202.708 117.12 203.448 117.14 204.328 117.1C206.128 117.1 207.628 116.34 208.828 114.82C210.068 113.34 210.988 111.4 211.588 109H209.908L198.388 82.24L195.808 81.46V76.24H212.968V81.46L209.608 82.18L215.428 97.84L215.848 100.84L216.748 97.84L221.488 82.12L217.468 81.46V76.24H232.348V81.46L229.468 82.06C228.268 85.06 226.368 89.84 223.768 96.4C221.168 102.92 219.248 107.66 218.008 110.62C217.088 113.1 216.188 115.18 215.308 116.86C214.428 118.58 213.488 120.02 212.488 121.18C211.408 122.42 210.228 123.34 208.948 123.94C207.708 124.58 206.268 124.9 204.628 124.9C203.668 124.9 202.708 124.86 201.748 124.78C200.788 124.7 200.188 124.58 199.948 124.42L200.008 116.62Z"/>
</mask>
<path d="M63.74 99.34L65.6 102.58C66.76 103.74 67.74 104.56 68.54 105.04C69.34 105.52 70.38 105.76 71.66 105.76C73.22 105.76 74.4 105.44 75.2 104.8C76.04 104.12 76.46 103.22 76.46 102.1C76.42 101.1 75.76 100.2 74.48 99.4C73.24 98.6 71.36 97.64 68.84 96.52C65.4 94.92 62.8 93.22 61.04 91.42C59.28 89.62 58.4 87.38 58.4 84.7C58.44 82.66 59.16 80.94 60.56 79.54C61.96 78.1 63.72 77.04 65.84 76.36C67.96 75.64 70.16 75.28 72.44 75.28C74.24 75.2 76.32 75.34 78.68 75.7C81.04 76.02 82.84 76.44 84.08 76.96V85H78.92L77.3 81.34C76.74 80.66 76.08 80.1 75.32 79.66C74.56 79.22 73.78 79 72.98 79C71.74 79 70.7 79.26 69.86 79.78C69.06 80.26 68.66 80.9 68.66 81.7C68.66 82.74 68.96 83.64 69.56 84.4C70.2 85.16 71.06 85.86 72.14 86.5C73.22 87.1 74.8 87.88 76.88 88.84C80.04 90.28 82.4 91.74 83.96 93.22C85.56 94.7 86.36 96.68 86.36 99.16C86.36 102.8 84.9 105.48 81.98 107.2C79.06 108.88 75.3 109.72 70.7 109.72C68.7 109.72 66.58 109.48 64.34 109C62.14 108.52 60.34 107.88 58.94 107.08V99.34H63.74ZM106.589 75.28C111.149 75.28 114.529 76.24 116.729 78.16C118.929 80.04 120.029 83.1 120.029 87.34V105.04H123.869V108.16C123.069 108.72 121.949 109.14 120.509 109.42C119.109 109.7 117.709 109.84 116.309 109.84C114.829 109.84 113.609 109.56 112.649 109C111.689 108.4 111.149 107.56 111.029 106.48C108.669 108.72 105.829 109.84 102.509 109.84C98.8294 109.84 95.8494 109.02 93.5694 107.38C91.2894 105.7 90.1494 103.38 90.1494 100.42C90.1494 97.78 91.0694 95.56 92.9094 93.76C94.7494 91.96 97.1494 90.62 100.109 89.74C103.109 88.86 106.289 88.42 109.649 88.42V88.06C109.609 85.42 109.129 83.56 108.209 82.48C107.329 81.4 105.729 80.86 103.409 80.86C101.729 80.86 99.9494 81.1 98.0694 81.58C96.2294 82.06 94.7894 82.66 93.7494 83.38L91.7694 78.88C93.2094 77.72 95.3494 76.84 98.1894 76.24C101.069 75.6 103.869 75.28 106.589 75.28ZM109.649 92.92C107.049 92.92 104.889 93.44 103.169 94.48C101.489 95.52 100.649 97.08 100.649 99.16C100.649 100.8 101.049 102.06 101.849 102.94C102.689 103.78 103.909 104.2 105.509 104.2C107.269 104.2 108.649 103.78 109.649 102.94V92.92ZM136.987 86.5C135.707 86.5 134.787 86.74 134.227 87.22C133.667 87.7 133.387 88.4 133.387 89.32C133.387 90.6 133.927 91.78 135.007 92.86C137.447 91.14 140.327 90.28 143.647 90.28C145.847 90.28 147.967 90.92 150.007 92.2C152.047 93.44 153.707 94.94 154.987 96.7C156.307 98.46 156.967 100.02 156.967 101.38C156.967 103.02 156.327 104.76 155.047 106.6C153.807 108.4 152.367 109.96 150.727 111.28L144.907 106.06V105.94C147.187 104.46 148.867 103.2 149.947 102.16C151.027 101.08 151.567 99.96 151.567 98.8C151.567 97.92 151.127 97.22 150.247 96.7C149.407 96.14 148.127 95.86 146.407 95.86C144.127 95.86 142.187 96.54 140.587 97.9C139.027 99.26 138.247 100.92 138.247 102.88C138.247 105.76 139.487 108.36 141.967 110.68C144.447 113.04 148.147 115.56 153.067 118.24L151.447 120.46C147.487 118.5 144.067 116.6 141.187 114.76C138.347 112.96 135.887 110.84 133.807 108.4C131.767 105.96 130.747 103.3 130.747 100.42C130.747 98.66 131.307 97 132.427 95.44C131.307 94.08 130.447 92.78 129.847 91.54C129.247 90.3 128.947 89 128.947 87.64C128.947 82.36 130.987 79.72 135.067 79.72H145.567V75.64H123.427L120.667 70.18V68.86H156.907L159.787 74.38V75.64H153.547V86.5H136.987ZM178.25 75.28C182.81 75.28 186.19 76.24 188.39 78.16C190.59 80.04 191.69 83.1 191.69 87.34V105.04H195.53V108.16C194.73 108.72 193.61 109.14 192.17 109.42C190.77 109.7 189.37 109.84 187.97 109.84C186.49 109.84 185.27 109.56 184.31 109C183.35 108.4 182.81 107.56 182.69 106.48C180.33 108.72 177.49 109.84 174.17 109.84C170.49 109.84 167.51 109.02 165.23 107.38C162.95 105.7 161.81 103.38 161.81 100.42C161.81 97.78 162.73 95.56 164.57 93.76C166.41 91.96 168.81 90.62 171.77 89.74C174.77 88.86 177.95 88.42 181.31 88.42V88.06C181.27 85.42 180.79 83.56 179.87 82.48C178.99 81.4 177.39 80.86 175.07 80.86C173.39 80.86 171.61 81.1 169.73 81.58C167.89 82.06 166.45 82.66 165.41 83.38L163.43 78.88C164.87 77.72 167.01 76.84 169.85 76.24C172.73 75.6 175.53 75.28 178.25 75.28ZM181.31 92.92C178.71 92.92 176.55 93.44 174.83 94.48C173.15 95.52 172.31 97.08 172.31 99.16C172.31 100.8 172.71 102.06 173.51 102.94C174.35 103.78 175.57 104.2 177.17 104.2C178.93 104.2 180.31 103.78 181.31 102.94V92.92ZM200.008 116.62C200.848 116.82 201.548 116.96 202.108 117.04C202.708 117.12 203.448 117.14 204.328 117.1C206.128 117.1 207.628 116.34 208.828 114.82C210.068 113.34 210.988 111.4 211.588 109H209.908L198.388 82.24L195.808 81.46V76.24H212.968V81.46L209.608 82.18L215.428 97.84L215.848 100.84L216.748 97.84L221.488 82.12L217.468 81.46V76.24H232.348V81.46L229.468 82.06C228.268 85.06 226.368 89.84 223.768 96.4C221.168 102.92 219.248 107.66 218.008 110.62C217.088 113.1 216.188 115.18 215.308 116.86C214.428 118.58 213.488 120.02 212.488 121.18C211.408 122.42 210.228 123.34 208.948 123.94C207.708 124.58 206.268 124.9 204.628 124.9C203.668 124.9 202.708 124.86 201.748 124.78C200.788 124.7 200.188 124.58 199.948 124.42L200.008 116.62Z" fill="white"/>
<path d="M63.74 99.34L66.3418 97.8464L65.477 96.34H63.74V99.34ZM65.6 102.58L62.9982 104.074L63.1967 104.419L63.4787 104.701L65.6 102.58ZM68.54 105.04L66.9965 107.612L66.9965 107.612L68.54 105.04ZM75.2 104.8L77.0741 107.143L77.0809 107.137L77.0876 107.132L75.2 104.8ZM76.46 102.1H79.46V102.04L79.4576 101.98L76.46 102.1ZM74.48 99.4L72.8536 101.921L72.8717 101.933L72.89 101.944L74.48 99.4ZM68.84 96.52L67.5748 99.2402L67.5981 99.251L67.6216 99.2614L68.84 96.52ZM61.04 91.42L58.895 93.5174L58.895 93.5174L61.04 91.42ZM58.4 84.7L55.4006 84.6412L55.4 84.6706V84.7H58.4ZM60.56 79.54L62.6813 81.6613L62.6963 81.6464L62.711 81.6312L60.56 79.54ZM65.84 76.36L66.7563 79.2166L66.7806 79.2088L66.8047 79.2006L65.84 76.36ZM72.44 75.28V78.28H72.5066L72.5732 78.277L72.44 75.28ZM78.68 75.7L78.2276 78.6657L78.2522 78.6694L78.2769 78.6728L78.68 75.7ZM84.08 76.96H87.08V74.965L85.2402 74.1934L84.08 76.96ZM84.08 85V88H87.08V85H84.08ZM78.92 85L76.1767 86.2142L76.9671 88H78.92V85ZM77.3 81.34L80.0433 80.1258L79.877 79.75L79.6158 79.4329L77.3 81.34ZM75.32 79.66L76.8231 77.0637L76.8231 77.0637L75.32 79.66ZM69.86 79.78L71.4035 82.3525L71.4214 82.3418L71.4391 82.3308L69.86 79.78ZM69.56 84.4L67.2054 86.2589L67.2347 86.2961L67.2653 86.3324L69.56 84.4ZM72.14 86.5L70.6106 89.0809L70.6465 89.1022L70.6831 89.1225L72.14 86.5ZM76.88 88.84L75.6228 91.5639L75.6294 91.5669L75.636 91.5699L76.88 88.84ZM83.96 93.22L81.8952 95.3964L81.909 95.4094L81.9229 95.4223L83.96 93.22ZM81.98 107.2L83.4761 109.8L83.4894 109.793L83.5026 109.785L81.98 107.2ZM64.34 109L63.7005 111.931L63.7114 111.933L64.34 109ZM58.94 107.08H55.94V108.821L57.4516 109.685L58.94 107.08ZM58.94 99.34V96.34H55.94V99.34H58.94ZM63.74 99.34L61.1382 100.834L62.9982 104.074L65.6 102.58L68.2018 101.086L66.3418 97.8464L63.74 99.34ZM65.6 102.58L63.4787 104.701C64.7025 105.925 65.8853 106.946 66.9965 107.612L68.54 105.04L70.0835 102.468C69.5947 102.174 68.8175 101.555 67.7213 100.459L65.6 102.58ZM68.54 105.04L66.9965 107.612C68.4051 108.458 70.0305 108.76 71.66 108.76V105.76V102.76C70.7295 102.76 70.2749 102.582 70.0835 102.468L68.54 105.04ZM71.66 105.76V108.76C73.5621 108.76 75.527 108.38 77.0741 107.143L75.2 104.8L73.3259 102.457C73.273 102.5 72.8779 102.76 71.66 102.76V105.76ZM75.2 104.8L77.0876 107.132C78.6603 105.859 79.46 104.087 79.46 102.1H76.46H73.46C73.46 102.278 73.4287 102.342 73.4265 102.346C73.4257 102.348 73.41 102.389 73.3124 102.468L75.2 104.8ZM76.46 102.1L79.4576 101.98C79.3607 99.5564 77.7414 97.9006 76.07 96.856L74.48 99.4L72.89 101.944C73.314 102.209 73.4749 102.393 73.5158 102.449C73.5319 102.471 73.5174 102.457 73.4987 102.406C73.4791 102.353 73.4651 102.287 73.4624 102.22L76.46 102.1ZM74.48 99.4L76.1064 96.8791C74.6691 95.9519 72.6208 94.9174 70.0584 93.7786L68.84 96.52L67.6216 99.2614C70.0992 100.363 71.8109 101.248 72.8536 101.921L74.48 99.4ZM68.84 96.52L70.1052 93.7998C66.8438 92.2829 64.5974 90.7672 63.185 89.3226L61.04 91.42L58.895 93.5174C61.0026 95.6728 63.9562 97.5571 67.5748 99.2402L68.84 96.52ZM61.04 91.42L63.185 89.3226C62.011 88.1219 61.4 86.6519 61.4 84.7H58.4H55.4C55.4 88.108 56.549 91.118 58.895 93.5174L61.04 91.42ZM58.4 84.7L61.3994 84.7588C61.4247 83.4676 61.8479 82.4948 62.6813 81.6613L60.56 79.54L58.4387 77.4187C56.4721 79.3852 55.4553 81.8524 55.4006 84.6412L58.4 84.7ZM60.56 79.54L62.711 81.6312C63.7324 80.5807 65.0526 79.7631 66.7563 79.2166L65.84 76.36L64.9237 73.5034C62.3874 74.3169 60.1876 75.6193 58.409 77.4488L60.56 79.54ZM65.84 76.36L66.8047 79.2006C68.6083 78.5881 70.482 78.28 72.44 78.28V75.28V72.28C69.838 72.28 67.3117 72.6919 64.8753 73.5194L65.84 76.36ZM72.44 75.28L72.5732 78.277C74.1262 78.208 76.003 78.3263 78.2276 78.6657L78.68 75.7L79.1324 72.7343C76.637 72.3537 74.3538 72.192 72.3068 72.283L72.44 75.28ZM78.68 75.7L78.2769 78.6728C80.5437 78.9802 82.0396 79.3574 82.9198 79.7266L84.08 76.96L85.2402 74.1934C83.6404 73.5225 81.5363 73.0598 79.0831 72.7272L78.68 75.7ZM84.08 76.96H81.08V85H84.08H87.08V76.96H84.08ZM84.08 85V82H78.92V85V88H84.08V85ZM78.92 85L81.6633 83.7858L80.0433 80.1258L77.3 81.34L74.5567 82.5542L76.1767 86.2142L78.92 85ZM77.3 81.34L79.6158 79.4329C78.8289 78.4774 77.8939 77.6837 76.8231 77.0637L75.32 79.66L73.8169 82.2563C74.2661 82.5163 74.6511 82.8426 74.9842 83.2471L77.3 81.34ZM75.32 79.66L76.8231 77.0637C75.6522 76.3858 74.3584 76 72.98 76V79V82C73.2016 82 73.4678 82.0542 73.8169 82.2563L75.32 79.66ZM72.98 79V76C71.3235 76 69.7026 76.3491 68.2809 77.2292L69.86 79.78L71.4391 82.3308C71.6974 82.1709 72.1565 82 72.98 82V79ZM69.86 79.78L68.3165 77.2075C66.7905 78.1231 65.66 79.6544 65.66 81.7H68.66H71.66C71.66 81.7523 71.6531 81.8337 71.6256 81.9329C71.5977 82.0334 71.5552 82.1281 71.504 82.21C71.4004 82.3758 71.3157 82.4052 71.4035 82.3525L69.86 79.78ZM68.66 81.7H65.66C65.66 83.3612 66.1554 84.929 67.2054 86.2589L69.56 84.4L71.9146 82.5411C71.7646 82.351 71.66 82.1188 71.66 81.7H68.66ZM69.56 84.4L67.2653 86.3324C68.1708 87.4077 69.3138 88.3124 70.6106 89.0809L72.14 86.5L73.6694 83.9191C72.8062 83.4076 72.2293 82.9123 71.8547 82.4676L69.56 84.4ZM72.14 86.5L70.6831 89.1225C71.8616 89.7772 73.5217 90.5941 75.6228 91.5639L76.88 88.84L78.1372 86.1161C76.0783 85.1659 74.5784 84.4228 73.5969 83.8775L72.14 86.5ZM76.88 88.84L75.636 91.5699C78.6558 92.946 80.6783 94.2419 81.8952 95.3964L83.96 93.22L86.0248 91.0436C84.1217 89.2381 81.4243 87.614 78.124 86.1101L76.88 88.84ZM83.96 93.22L81.9229 95.4223C82.8216 96.2536 83.36 97.3892 83.36 99.16H86.36H89.36C89.36 95.9708 88.2984 93.1464 85.9971 91.0177L83.96 93.22ZM86.36 99.16H83.36C83.36 101.833 82.3824 103.481 80.4574 104.615L81.98 107.2L83.5026 109.785C87.4176 107.479 89.36 103.767 89.36 99.16H86.36ZM81.98 107.2L80.4839 104.6C78.1556 105.939 74.9588 106.72 70.7 106.72V109.72V112.72C75.6412 112.72 79.9644 111.821 83.4761 109.8L81.98 107.2ZM70.7 109.72V106.72C68.9392 106.72 67.0312 106.509 64.9686 106.067L64.34 109L63.7114 111.933C66.1288 112.451 68.4608 112.72 70.7 112.72V109.72ZM64.34 109L64.9795 106.069C62.9688 105.63 61.4819 105.077 60.4284 104.475L58.94 107.08L57.4516 109.685C59.1981 110.683 61.3112 111.41 63.7005 111.931L64.34 109ZM58.94 107.08H61.94V99.34H58.94H55.94V107.08H58.94ZM58.94 99.34V102.34H63.74V99.34V96.34H58.94V99.34ZM116.729 78.16L114.757 80.4203L114.769 80.4305L114.78 80.4407L116.729 78.16ZM120.029 105.04H117.029V108.04H120.029V105.04ZM123.869 105.04H126.869V102.04H123.869V105.04ZM123.869 108.16L125.59 110.618L126.869 109.722V108.16H123.869ZM120.509 109.42L119.937 106.475L119.929 106.477L119.921 106.478L120.509 109.42ZM112.649 109L111.059 111.544L111.098 111.568L111.138 111.591L112.649 109ZM111.029 106.48L114.011 106.149L113.344 100.147L108.964 104.304L111.029 106.48ZM93.5694 107.38L91.7898 109.795L91.8036 109.805L91.8176 109.815L93.5694 107.38ZM92.9094 93.76L95.0073 95.9045L95.0073 95.9045L92.9094 93.76ZM100.109 89.74L99.2649 86.8613L99.2545 86.8644L100.109 89.74ZM109.649 88.42V91.42H112.649V88.42H109.649ZM109.649 88.06H112.649V88.0373L112.649 88.0145L109.649 88.06ZM108.209 82.48L105.884 84.375L105.904 84.4004L105.926 84.4254L108.209 82.48ZM98.0694 81.58L97.3272 78.6732L97.3197 78.6752L97.3121 78.6771L98.0694 81.58ZM93.7494 83.38L91.0034 84.5882L92.4677 87.9161L95.457 85.8466L93.7494 83.38ZM91.7694 78.88L89.8874 76.5437L88.0981 77.9851L89.0234 80.0882L91.7694 78.88ZM98.1894 76.24L98.8095 79.1752L98.8248 79.172L98.8402 79.1686L98.1894 76.24ZM109.649 92.92H112.649V89.92H109.649V92.92ZM103.169 94.48L101.617 91.9128L101.604 91.9209L101.59 91.9292L103.169 94.48ZM101.849 102.94L99.6296 104.958L99.6776 105.011L99.7281 105.061L101.849 102.94ZM109.649 102.94L111.579 105.237L112.649 104.338V102.94H109.649ZM106.589 75.28V78.28C110.812 78.28 113.338 79.1822 114.757 80.4203L116.729 78.16L118.702 75.8997C115.721 73.2978 111.486 72.28 106.589 72.28V75.28ZM116.729 78.16L114.78 80.4407C116.051 81.5262 117.029 83.5599 117.029 87.34H120.029H123.029C123.029 82.6401 121.808 78.5538 118.678 75.8793L116.729 78.16ZM120.029 87.34H117.029V105.04H120.029H123.029V87.34H120.029ZM120.029 105.04V108.04H123.869V105.04V102.04H120.029V105.04ZM123.869 105.04H120.869V108.16H123.869H126.869V105.04H123.869ZM123.869 108.16L122.149 105.702C121.822 105.931 121.152 106.239 119.937 106.475L120.509 109.42L121.082 112.365C122.746 112.041 124.317 111.509 125.59 110.618L123.869 108.16ZM120.509 109.42L119.921 106.478C118.711 106.72 117.508 106.84 116.309 106.84V109.84V112.84C117.911 112.84 119.508 112.68 121.098 112.362L120.509 109.42ZM116.309 109.84V106.84C115.19 106.84 114.534 106.627 114.161 106.409L112.649 109L111.138 111.591C112.684 112.493 114.469 112.84 116.309 112.84V109.84ZM112.649 109L114.239 106.456C114.084 106.359 114.048 106.298 114.048 106.298C114.045 106.293 114.041 106.286 114.035 106.27C114.029 106.253 114.018 106.215 114.011 106.149L111.029 106.48L108.048 106.811C108.274 108.846 109.359 110.482 111.059 111.544L112.649 109ZM111.029 106.48L108.964 104.304C107.174 106.003 105.078 106.84 102.509 106.84V109.84V112.84C106.581 112.84 110.165 111.437 113.095 108.656L111.029 106.48ZM102.509 109.84V106.84C99.2641 106.84 96.9532 106.118 95.3212 104.945L93.5694 107.38L91.8176 109.815C94.7456 111.922 98.3947 112.84 102.509 112.84V109.84ZM93.5694 107.38L95.349 104.965C93.8762 103.88 93.1494 102.477 93.1494 100.42H90.1494H87.1494C87.1494 104.283 88.7026 107.52 91.7898 109.795L93.5694 107.38ZM90.1494 100.42H93.1494C93.1494 98.5638 93.7606 97.1241 95.0073 95.9045L92.9094 93.76L90.8115 91.6155C88.3782 93.9959 87.1494 96.9962 87.1494 100.42H90.1494ZM92.9094 93.76L95.0073 95.9045C96.4353 94.5075 98.3791 93.3842 100.964 92.6156L100.109 89.74L99.2545 86.8644C95.9197 87.8558 93.0634 89.4125 90.8115 91.6155L92.9094 93.76ZM100.109 89.74L100.954 92.6187C103.66 91.8249 106.554 91.42 109.649 91.42V88.42V85.42C106.025 85.42 102.559 85.8951 99.265 86.8613L100.109 89.74ZM109.649 88.42H112.649V88.06H109.649H106.649V88.42H109.649ZM109.649 88.06L112.649 88.0145C112.606 85.2032 112.117 82.4414 110.493 80.5346L108.209 82.48L105.926 84.4254C106.141 84.6786 106.612 85.6368 106.65 88.1054L109.649 88.06ZM108.209 82.48L110.535 80.585C108.797 78.4517 106.045 77.86 103.409 77.86V80.86V83.86C105.414 83.86 105.862 84.3483 105.884 84.375L108.209 82.48ZM103.409 80.86V77.86C101.444 77.86 99.4132 78.1407 97.3272 78.6732L98.0694 81.58L98.8115 84.4868C100.486 84.0593 102.015 83.86 103.409 83.86V80.86ZM98.0694 81.58L97.3121 78.6771C95.2861 79.2057 93.4774 79.9195 92.0417 80.9134L93.7494 83.38L95.457 85.8466C96.1014 85.4005 97.1727 84.9143 98.8266 84.4829L98.0694 81.58ZM93.7494 83.38L96.4953 82.1718L94.5153 77.6718L91.7694 78.88L89.0234 80.0882L91.0034 84.5882L93.7494 83.38ZM91.7694 78.88L93.6514 81.2163C94.5728 80.474 96.1945 79.7277 98.8095 79.1752L98.1894 76.24L97.5693 73.3048C94.5043 73.9523 91.846 74.966 89.8874 76.5437L91.7694 78.88ZM98.1894 76.24L98.8402 79.1686C101.524 78.5721 104.106 78.28 106.589 78.28V75.28V72.28C103.633 72.28 100.614 72.6279 97.5386 73.3114L98.1894 76.24ZM109.649 92.92V89.92C106.66 89.92 103.924 90.5179 101.617 91.9128L103.169 94.48L104.722 97.0472C105.855 96.3621 107.439 95.92 109.649 95.92V92.92ZM103.169 94.48L101.59 91.9292C98.972 93.5501 97.6494 96.1074 97.6494 99.16H100.649H103.649C103.649 98.0526 104.007 97.4899 104.748 97.0308L103.169 94.48ZM100.649 99.16H97.6494C97.6494 101.262 98.1643 103.346 99.6296 104.958L101.849 102.94L104.069 100.922C103.934 100.774 103.649 100.338 103.649 99.16H100.649ZM101.849 102.94L99.7281 105.061C101.304 106.637 103.398 107.2 105.509 107.2V104.2V101.2C104.421 101.2 104.075 100.923 103.971 100.819L101.849 102.94ZM105.509 104.2V107.2C107.729 107.2 109.876 106.668 111.579 105.237L109.649 102.94L107.72 100.643C107.423 100.892 106.81 101.2 105.509 101.2V104.2ZM109.649 102.94H112.649V92.92H109.649H106.649V102.94H109.649ZM134.227 87.22L136.18 89.4978L136.18 89.4978L134.227 87.22ZM135.007 92.86L132.886 94.9813L134.672 96.767L136.736 95.312L135.007 92.86ZM150.007 92.2L148.413 94.7412L148.431 94.7525L148.449 94.7636L150.007 92.2ZM154.987 96.7L152.561 98.4645L152.574 98.4824L152.587 98.5L154.987 96.7ZM155.047 106.6L152.585 104.887L152.577 104.898L155.047 106.6ZM150.727 111.28L148.724 113.513L150.622 115.216L152.608 113.617L150.727 111.28ZM144.907 106.06H141.907V107.399L142.904 108.293L144.907 106.06ZM144.907 105.94L143.274 103.424L141.907 104.311V105.94H144.907ZM149.947 102.16L152.028 104.321L152.049 104.301L152.069 104.281L149.947 102.16ZM150.247 96.7L148.583 99.1962L148.651 99.2413L148.721 99.2828L150.247 96.7ZM140.587 97.9L138.644 95.6142L138.63 95.6263L138.616 95.6387L140.587 97.9ZM141.967 110.68L144.035 108.507L144.026 108.498L144.017 108.489L141.967 110.68ZM153.067 118.24L155.491 120.008L157.509 117.243L154.502 115.605L153.067 118.24ZM151.447 120.46L150.117 123.149L152.381 124.27L153.871 122.228L151.447 120.46ZM141.187 114.76L142.803 112.232L142.793 112.226L141.187 114.76ZM133.807 108.4L131.506 110.324L131.515 110.335L131.524 110.346L133.807 108.4ZM132.427 95.44L134.864 97.1896L136.21 95.3146L134.743 93.5329L132.427 95.44ZM129.847 91.54L127.147 92.8467L127.147 92.8467L129.847 91.54ZM145.567 79.72V82.72H148.567V79.72H145.567ZM145.567 75.64H148.567V72.64H145.567V75.64ZM123.427 75.64L120.75 76.9934L121.582 78.64H123.427V75.64ZM120.667 70.18H117.667V70.8952L117.99 71.5334L120.667 70.18ZM120.667 68.86V65.86H117.667V68.86H120.667ZM156.907 68.86L159.567 67.4723L158.726 65.86H156.907V68.86ZM159.787 74.38H162.787V73.6444L162.447 72.9923L159.787 74.38ZM159.787 75.64V78.64H162.787V75.64H159.787ZM153.547 75.64V72.64H150.547V75.64H153.547ZM153.547 86.5V89.5H156.547V86.5H153.547ZM136.987 86.5V83.5C135.47 83.5 133.656 83.7583 132.275 84.9422L134.227 87.22L136.18 89.4978C136.029 89.627 135.952 89.62 136.095 89.5829C136.239 89.5452 136.521 89.5 136.987 89.5V86.5ZM134.227 87.22L132.275 84.9422C130.89 86.1291 130.387 87.7591 130.387 89.32H133.387H136.387C136.387 89.16 136.412 89.1461 136.383 89.2192C136.368 89.2565 136.343 89.3065 136.304 89.361C136.265 89.4158 136.221 89.462 136.18 89.4978L134.227 87.22ZM133.387 89.32H130.387C130.387 91.5466 131.36 93.4553 132.886 94.9813L135.007 92.86L137.129 90.7387C136.495 90.1047 136.387 89.6534 136.387 89.32H133.387ZM135.007 92.86L136.736 95.312C138.614 93.9882 140.874 93.28 143.647 93.28V90.28V87.28C139.781 87.28 136.281 88.2918 133.279 90.408L135.007 92.86ZM143.647 90.28V93.28C145.23 93.28 146.804 93.7316 148.413 94.7412L150.007 92.2L151.602 89.6588C149.131 88.1084 146.464 87.28 143.647 87.28V90.28ZM150.007 92.2L148.449 94.7636C150.183 95.8174 151.536 97.0556 152.561 98.4645L154.987 96.7L157.414 94.9355C155.878 92.8244 153.912 91.0626 151.566 89.6364L150.007 92.2ZM154.987 96.7L152.587 98.5C153.74 100.036 153.967 100.961 153.967 101.38H156.967H159.967C159.967 99.0792 158.875 96.8837 157.387 94.9L154.987 96.7ZM156.967 101.38H153.967C153.967 102.22 153.64 103.37 152.585 104.887L155.047 106.6L157.51 108.313C159.015 106.15 159.967 103.82 159.967 101.38H156.967ZM155.047 106.6L152.577 104.898C151.495 106.468 150.252 107.812 148.846 108.943L150.727 111.28L152.608 113.617C154.483 112.108 156.119 110.332 157.518 108.302L155.047 106.6ZM150.727 111.28L152.73 109.047L146.91 103.827L144.907 106.06L142.904 108.293L148.724 113.513L150.727 111.28ZM144.907 106.06H147.907V105.94H144.907H141.907V106.06H144.907ZM144.907 105.94L146.541 108.456C148.874 106.942 150.742 105.559 152.028 104.321L149.947 102.16L147.866 99.999C146.992 100.841 145.5 101.978 143.274 103.424L144.907 105.94ZM149.947 102.16L152.069 104.281C153.526 102.824 154.567 100.984 154.567 98.8H151.567H148.567C148.567 98.9363 148.528 99.3364 147.826 100.039L149.947 102.16ZM151.567 98.8H154.567C154.567 96.6701 153.392 95.0734 151.774 94.1172L150.247 96.7L148.721 99.2828C148.845 99.356 148.785 99.3509 148.697 99.2115C148.654 99.143 148.618 99.0628 148.595 98.9786C148.572 98.8956 148.567 98.8322 148.567 98.8H151.567ZM150.247 96.7L151.911 94.2038C150.341 93.1568 148.349 92.86 146.407 92.86V95.86V98.86C147.906 98.86 148.474 99.1231 148.583 99.1962L150.247 96.7ZM146.407 95.86V92.86C143.481 92.86 140.835 93.7523 138.644 95.6142L140.587 97.9L142.53 100.186C143.54 99.3277 144.773 98.86 146.407 98.86V95.86ZM140.587 97.9L138.616 95.6387C136.444 97.5322 135.247 99.9994 135.247 102.88H138.247H141.247C141.247 101.841 141.611 100.988 142.559 100.161L140.587 97.9ZM138.247 102.88H135.247C135.247 106.739 136.95 110.094 139.918 112.871L141.967 110.68L144.017 108.489C142.025 106.626 141.247 104.781 141.247 102.88H138.247ZM141.967 110.68L139.899 112.853C142.651 115.472 146.608 118.138 151.632 120.875L153.067 118.24L154.502 115.605C149.687 112.982 146.244 110.608 144.035 108.507L141.967 110.68ZM153.067 118.24L150.644 116.472L149.024 118.692L151.447 120.46L153.871 122.228L155.491 120.008L153.067 118.24ZM151.447 120.46L152.778 117.771C148.889 115.846 145.569 113.999 142.803 112.232L141.187 114.76L139.572 117.288C142.566 119.201 146.086 121.154 150.117 123.149L151.447 120.46ZM141.187 114.76L142.793 112.226C140.195 110.579 137.966 108.654 136.09 106.454L133.807 108.4L131.524 110.346C133.809 113.026 136.5 115.341 139.581 117.294L141.187 114.76ZM133.807 108.4L136.109 106.476C134.47 104.515 133.747 102.522 133.747 100.42H130.747H127.747C127.747 104.078 129.065 107.405 131.506 110.324L133.807 108.4ZM130.747 100.42H133.747C133.747 99.3454 134.075 98.2886 134.864 97.1896L132.427 95.44L129.99 93.6904C128.539 95.7114 127.747 97.9746 127.747 100.42H130.747ZM132.427 95.44L134.743 93.5329C133.735 92.3087 133.02 91.2087 132.548 90.2333L129.847 91.54L127.147 92.8467C127.875 94.3513 128.88 95.8513 130.112 97.3471L132.427 95.44ZM129.847 91.54L132.548 90.2333C132.142 89.3953 131.947 88.5414 131.947 87.64H128.947H125.947C125.947 89.4586 126.352 91.2047 127.147 92.8467L129.847 91.54ZM128.947 87.64H131.947C131.947 85.3029 132.413 84.1012 132.851 83.5343C133.176 83.1142 133.726 82.72 135.067 82.72V79.72V76.72C132.328 76.72 129.819 77.6458 128.103 79.8657C126.501 81.9388 125.947 84.6971 125.947 87.64H128.947ZM135.067 79.72V82.72H145.567V79.72V76.72H135.067V79.72ZM145.567 79.72H148.567V75.64H145.567H142.567V79.72H145.567ZM145.567 75.64V72.64H123.427V75.64V78.64H145.567V75.64ZM123.427 75.64L126.105 74.2866L123.345 68.8266L120.667 70.18L117.99 71.5334L120.75 76.9934L123.427 75.64ZM120.667 70.18H123.667V68.86H120.667H117.667V70.18H120.667ZM120.667 68.86V71.86H156.907V68.86V65.86H120.667V68.86ZM156.907 68.86L154.248 70.2477L157.128 75.7677L159.787 74.38L162.447 72.9923L159.567 67.4723L156.907 68.86ZM159.787 74.38H156.787V75.64H159.787H162.787V74.38H159.787ZM159.787 75.64V72.64H153.547V75.64V78.64H159.787V75.64ZM153.547 75.64H150.547V86.5H153.547H156.547V75.64H153.547ZM153.547 86.5V83.5H136.987V86.5V89.5H153.547V86.5ZM188.39 78.16L186.417 80.4203L186.429 80.4305L186.441 80.4407L188.39 78.16ZM191.69 105.04H188.69V108.04H191.69V105.04ZM195.53 105.04H198.53V102.04H195.53V105.04ZM195.53 108.16L197.25 110.618L198.53 109.722V108.16H195.53ZM192.17 109.42L191.597 106.475L191.589 106.477L191.581 106.478L192.17 109.42ZM184.31 109L182.72 111.544L182.758 111.568L182.798 111.591L184.31 109ZM182.69 106.48L185.671 106.149L185.004 100.147L180.624 104.304L182.69 106.48ZM165.23 107.38L163.45 109.795L163.464 109.805L163.478 109.815L165.23 107.38ZM164.57 93.76L166.667 95.9045L166.667 95.9045L164.57 93.76ZM171.77 89.74L170.925 86.8613L170.915 86.8644L171.77 89.74ZM181.31 88.42V91.42H184.31V88.42H181.31ZM181.31 88.06H184.31V88.0373L184.309 88.0145L181.31 88.06ZM179.87 82.48L177.544 84.375L177.565 84.4004L177.586 84.4254L179.87 82.48ZM169.73 81.58L168.987 78.6732L168.98 78.6752L168.972 78.6771L169.73 81.58ZM165.41 83.38L162.664 84.5882L164.128 87.9161L167.117 85.8466L165.41 83.38ZM163.43 78.88L161.548 76.5437L159.758 77.9851L160.684 80.0882L163.43 78.88ZM169.85 76.24L170.47 79.1752L170.485 79.172L170.5 79.1686L169.85 76.24ZM181.31 92.92H184.31V89.92H181.31V92.92ZM174.83 94.48L173.277 91.9128L173.264 91.9209L173.25 91.9292L174.83 94.48ZM173.51 102.94L171.29 104.958L171.338 105.011L171.388 105.061L173.51 102.94ZM181.31 102.94L183.239 105.237L184.31 104.338V102.94H181.31ZM178.25 75.28V78.28C182.473 78.28 184.998 79.1822 186.417 80.4203L188.39 78.16L190.362 75.8997C187.381 73.2978 183.147 72.28 178.25 72.28V75.28ZM188.39 78.16L186.441 80.4407C187.711 81.5262 188.69 83.5599 188.69 87.34H191.69H194.69C194.69 82.6401 193.468 78.5538 190.338 75.8793L188.39 78.16ZM191.69 87.34H188.69V105.04H191.69H194.69V87.34H191.69ZM191.69 105.04V108.04H195.53V105.04V102.04H191.69V105.04ZM195.53 105.04H192.53V108.16H195.53H198.53V105.04H195.53ZM195.53 108.16L193.809 105.702C193.482 105.931 192.813 106.239 191.597 106.475L192.17 109.42L192.742 112.365C194.406 112.041 195.977 111.509 197.25 110.618L195.53 108.16ZM192.17 109.42L191.581 106.478C190.371 106.72 189.168 106.84 187.97 106.84V109.84V112.84C189.571 112.84 191.168 112.68 192.758 112.362L192.17 109.42ZM187.97 109.84V106.84C186.85 106.84 186.195 106.627 185.821 106.409L184.31 109L182.798 111.591C184.344 112.493 186.129 112.84 187.97 112.84V109.84ZM184.31 109L185.9 106.456C185.745 106.359 185.709 106.298 185.708 106.298C185.705 106.293 185.701 106.286 185.695 106.27C185.689 106.253 185.679 106.215 185.671 106.149L182.69 106.48L179.708 106.811C179.934 108.846 181.02 110.482 182.72 111.544L184.31 109ZM182.69 106.48L180.624 104.304C178.834 106.003 176.738 106.84 174.17 106.84V109.84V112.84C178.241 112.84 181.825 111.437 184.755 108.656L182.69 106.48ZM174.17 109.84V106.84C170.924 106.84 168.613 106.118 166.981 104.945L165.23 107.38L163.478 109.815C166.406 111.922 170.055 112.84 174.17 112.84V109.84ZM165.23 107.38L167.009 104.965C165.536 103.88 164.81 102.477 164.81 100.42H161.81H158.81C158.81 104.283 160.363 107.52 163.45 109.795L165.23 107.38ZM161.81 100.42H164.81C164.81 98.5638 165.421 97.1241 166.667 95.9045L164.57 93.76L162.472 91.6155C160.038 93.9959 158.81 96.9962 158.81 100.42H161.81ZM164.57 93.76L166.667 95.9045C168.096 94.5075 170.039 93.3842 172.624 92.6156L171.77 89.74L170.915 86.8644C167.58 87.8558 164.724 89.4125 162.472 91.6155L164.57 93.76ZM171.77 89.74L172.614 92.6187C175.32 91.8249 178.214 91.42 181.31 91.42V88.42V85.42C177.685 85.42 174.219 85.8951 170.925 86.8613L171.77 89.74ZM181.31 88.42H184.31V88.06H181.31H178.31V88.42H181.31ZM181.31 88.06L184.309 88.0145C184.267 85.2032 183.778 82.4414 182.153 80.5346L179.87 82.48L177.586 84.4254C177.802 84.6786 178.272 85.6368 178.31 88.1054L181.31 88.06ZM179.87 82.48L182.195 80.585C180.457 78.4517 177.705 77.86 175.07 77.86V80.86V83.86C177.074 83.86 177.522 84.3483 177.544 84.375L179.87 82.48ZM175.07 80.86V77.86C173.104 77.86 171.073 78.1407 168.987 78.6732L169.73 81.58L170.472 84.4868C172.146 84.0593 173.675 83.86 175.07 83.86V80.86ZM169.73 81.58L168.972 78.6771C166.946 79.2057 165.138 79.9195 163.702 80.9134L165.41 83.38L167.117 85.8466C167.762 85.4005 168.833 84.9143 170.487 84.4829L169.73 81.58ZM165.41 83.38L168.155 82.1718L166.175 77.6718L163.43 78.88L160.684 80.0882L162.664 84.5882L165.41 83.38ZM163.43 78.88L165.312 81.2163C166.233 80.474 167.855 79.7277 170.47 79.1752L169.85 76.24L169.229 73.3048C166.164 73.9523 163.506 74.966 161.548 76.5437L163.43 78.88ZM169.85 76.24L170.5 79.1686C173.185 78.5721 175.766 78.28 178.25 78.28V75.28V72.28C175.293 72.28 172.275 72.6279 169.199 73.3114L169.85 76.24ZM181.31 92.92V89.92C178.32 89.92 175.584 90.5179 173.277 91.9128L174.83 94.48L176.382 97.0472C177.515 96.3621 179.099 95.92 181.31 95.92V92.92ZM174.83 94.48L173.25 91.9292C170.632 93.5501 169.31 96.1074 169.31 99.16H172.31H175.31C175.31 98.0526 175.667 97.4899 176.409 97.0308L174.83 94.48ZM172.31 99.16H169.31C169.31 101.262 169.824 103.346 171.29 104.958L173.51 102.94L175.729 100.922C175.595 100.774 175.31 100.338 175.31 99.16H172.31ZM173.51 102.94L171.388 105.061C172.964 106.637 175.058 107.2 177.17 107.2V104.2V101.2C176.081 101.2 175.735 100.923 175.631 100.819L173.51 102.94ZM177.17 104.2V107.2C179.389 107.2 181.536 106.668 183.239 105.237L181.31 102.94L179.38 100.643C179.083 100.892 178.47 101.2 177.17 101.2V104.2ZM181.31 102.94H184.31V92.92H181.31H178.31V102.94H181.31ZM200.008 116.62L200.702 113.702L197.037 112.829L197.008 116.597L200.008 116.62ZM202.108 117.04L201.683 120.01L201.697 120.012L201.711 120.014L202.108 117.04ZM204.328 117.1V114.1H204.259L204.191 114.103L204.328 117.1ZM208.828 114.82L206.528 112.893L206.5 112.927L206.473 112.961L208.828 114.82ZM211.588 109L214.498 109.728L215.43 106H211.588V109ZM209.908 109L207.152 110.186L207.933 112H209.908V109ZM198.388 82.24L201.143 81.0538L200.591 79.7722L199.256 79.3684L198.388 82.24ZM195.808 81.46H192.808V83.6871L194.939 84.3316L195.808 81.46ZM195.808 76.24V73.24H192.808V76.24H195.808ZM212.968 76.24H215.968V73.24H212.968V76.24ZM212.968 81.46L213.596 84.3934L215.968 83.8852V81.46H212.968ZM209.608 82.18L208.979 79.2466L205.587 79.9734L206.795 83.2251L209.608 82.18ZM215.428 97.84L218.399 97.4241L218.353 97.1008L218.24 96.7949L215.428 97.84ZM215.848 100.84L212.876 101.256L218.721 101.702L215.848 100.84ZM216.748 97.84L213.875 96.9739L213.874 96.978L216.748 97.84ZM221.488 82.12L224.36 82.9861L225.347 79.7134L221.974 79.1596L221.488 82.12ZM217.468 81.46H214.468V84.0076L216.981 84.4204L217.468 81.46ZM217.468 76.24V73.24H214.468V76.24H217.468ZM232.348 76.24H235.348V73.24H232.348V76.24ZM232.348 81.46L232.959 84.3969L235.348 83.8994V81.46H232.348ZM229.468 82.06L228.856 79.1231L227.28 79.4513L226.682 80.9458L229.468 82.06ZM223.768 96.4L226.554 97.5112L226.556 97.5054L223.768 96.4ZM218.008 110.62L215.24 109.461L215.216 109.518L215.195 109.577L218.008 110.62ZM215.308 116.86L212.65 115.468L212.643 115.481L212.637 115.494L215.308 116.86ZM212.488 121.18L214.75 123.15L214.755 123.145L214.76 123.139L212.488 121.18ZM208.948 123.94L207.674 121.224L207.622 121.248L207.572 121.274L208.948 123.94ZM199.948 124.42L196.948 124.397L196.935 126.017L198.283 126.916L199.948 124.42ZM200.008 116.62L199.313 119.538C200.201 119.75 200.998 119.912 201.683 120.01L202.108 117.04L202.532 114.07C202.097 114.008 201.494 113.89 200.702 113.702L200.008 116.62ZM202.108 117.04L201.711 120.014C202.547 120.125 203.478 120.142 204.464 120.097L204.328 117.1L204.191 114.103C203.417 114.138 202.868 114.115 202.504 114.066L202.108 117.04ZM204.328 117.1V120.1C207.123 120.1 209.463 118.857 211.182 116.679L208.828 114.82L206.473 112.961C205.792 113.823 205.132 114.1 204.328 114.1V117.1ZM208.828 114.82L211.127 116.747C212.729 114.835 213.818 112.448 214.498 109.728L211.588 109L208.677 108.272C208.157 110.352 207.406 111.845 206.528 112.893L208.828 114.82ZM211.588 109V106H209.908V109V112H211.588V109ZM209.908 109L212.663 107.814L201.143 81.0538L198.388 82.24L195.632 83.4262L207.152 110.186L209.908 109ZM198.388 82.24L199.256 79.3684L196.676 78.5884L195.808 81.46L194.939 84.3316L197.519 85.1116L198.388 82.24ZM195.808 81.46H198.808V76.24H195.808H192.808V81.46H195.808ZM195.808 76.24V79.24H212.968V76.24V73.24H195.808V76.24ZM212.968 76.24H209.968V81.46H212.968H215.968V76.24H212.968ZM212.968 81.46L212.339 78.5266L208.979 79.2466L209.608 82.18L210.236 85.1134L213.596 84.3934L212.968 81.46ZM209.608 82.18L206.795 83.2251L212.615 98.8851L215.428 97.84L218.24 96.7949L212.42 81.1349L209.608 82.18ZM215.428 97.84L212.456 98.2559L212.876 101.256L215.848 100.84L218.819 100.424L218.399 97.4241L215.428 97.84ZM215.848 100.84L218.721 101.702L219.621 98.702L216.748 97.84L213.874 96.978L212.974 99.978L215.848 100.84ZM216.748 97.84L219.62 98.7061L224.36 82.9861L221.488 82.12L218.615 81.2539L213.875 96.9739L216.748 97.84ZM221.488 82.12L221.974 79.1596L217.954 78.4996L217.468 81.46L216.981 84.4204L221.001 85.0804L221.488 82.12ZM217.468 81.46H220.468V76.24H217.468H214.468V81.46H217.468ZM217.468 76.24V79.24H232.348V76.24V73.24H217.468V76.24ZM232.348 76.24H229.348V81.46H232.348H235.348V76.24H232.348ZM232.348 81.46L231.736 78.5231L228.856 79.1231L229.468 82.06L230.079 84.9969L232.959 84.3969L232.348 81.46ZM229.468 82.06L226.682 80.9458C225.48 83.9505 223.579 88.7343 220.979 95.2946L223.768 96.4L226.556 97.5054C229.156 90.9457 231.055 86.1695 232.253 83.1742L229.468 82.06ZM223.768 96.4L220.981 95.2888C218.382 101.807 216.47 106.526 215.24 109.461L218.008 110.62L220.775 111.779C222.025 108.794 223.953 104.033 226.554 97.5112L223.768 96.4ZM218.008 110.62L215.195 109.577C214.303 111.98 213.453 113.935 212.65 115.468L215.308 116.86L217.965 118.252C218.922 116.425 219.872 114.22 220.82 111.663L218.008 110.62ZM215.308 116.86L212.637 115.494C211.839 117.054 211.025 118.282 210.215 119.221L212.488 121.18L214.76 123.139C215.95 121.758 217.016 120.106 217.978 118.226L215.308 116.86ZM212.488 121.18L210.225 119.21C209.375 120.186 208.52 120.827 207.674 121.224L208.948 123.94L210.221 126.656C211.935 125.853 213.44 124.654 214.75 123.15L212.488 121.18ZM208.948 123.94L207.572 121.274C206.826 121.659 205.873 121.9 204.628 121.9V124.9V127.9C206.662 127.9 208.589 127.501 210.323 126.606L208.948 123.94ZM204.628 124.9V121.9C203.751 121.9 202.874 121.863 201.997 121.79L201.748 124.78L201.498 127.77C202.541 127.857 203.584 127.9 204.628 127.9V124.9ZM201.748 124.78L201.997 121.79C201.791 121.773 201.619 121.755 201.476 121.737C201.332 121.718 201.231 121.701 201.166 121.688C201.095 121.674 201.096 121.67 201.144 121.686C201.17 121.695 201.223 121.714 201.296 121.747C201.366 121.779 201.478 121.835 201.612 121.924L199.948 124.42L198.283 126.916C198.927 127.345 199.639 127.502 199.989 127.572C200.446 127.663 200.961 127.725 201.498 127.77L201.748 124.78ZM199.948 124.42L202.947 124.443L203.007 116.643L200.008 116.62L197.008 116.597L196.948 124.397L199.948 124.42Z" fill="black" mask="url(#path-3-outside-1_207_101)"/>
</svg>
