<svg width="70" height="70" viewBox="0 0 70 70" fill="none" xmlns="http://www.w3.org/2000/svg">
<mask id="mask0_207_103" style="mask-type:alpha" maskUnits="userSpaceOnUse" x="0" y="0" width="70" height="70">
<rect width="70" height="70" rx="20" fill="black"/>
</mask>
<g mask="url(#mask0_207_103)">
<path d="M-4.95851 -21.0791C-7.66084 -21.4217 -12.5754 -22.783 -15.3926 -23.2024C-15.4439 -23.2108 -15.4952 -23.2192 -15.5465 -23.2274C-16.2101 -23.3376 -16.8425 -23.4106 -17.5846 -23.4801C-19.3575 -23.6151 -21.741 -23.9003 -26.8001 -23.8626C-28.2625 -23.7185 -29.7172 -23.5217 -31.1653 -23.2729C-40.8498 -21.6196 -50.071 -17.454 -57.7484 -11.1324C-62.4687 -7.25792 -66.5616 -2.63607 -69.8123 2.58907C-69.9112 2.76735 -70.0106 2.94912 -70.11 3.13321C-72.0718 6.68475 -73.8541 11.3828 -74.9172 14.3636C-76.3019 18.1501 -76.9761 20.8449 -77.4832 23.0699C-79.6067 35.937 -76.9892 49.7367 -69.8796 60.9667C-68.433 63.2679 -66.8205 65.4507 -65.0393 67.5198C-64.0867 68.6259 -63.1073 69.6763 -62.0728 70.7004C-59.3459 73.3995 -56.3361 75.8088 -53.1099 77.8722C-51.1756 78.984 -49.2569 79.8978 -47.4517 80.6509C-44.912 81.7114 -42.5948 82.4582 -40.6871 83.0704C-36.105 84.5757 -30.7619 85.8408 -26.6954 86.3145C-26.0325 86.3967 -25.4046 86.4627 -24.8228 86.5138C-21.5749 86.6007 -18.3256 86.4027 -15.1265 85.9281C-14.9064 85.9501 -14.6844 85.9727 -14.4579 85.9946C-11.6348 86.2472 -8.17807 85.6868 -3.07121 83.9156C-0.848195 83.1299 1.67793 82.0942 4.54869 80.6424C6.39676 79.6992 7.42625 79.3586 8.28805 79.0759C8.53994 78.9921 8.77828 78.9101 9.00881 78.8182C9.80218 78.5006 10.4532 77.8635 11.1933 77.0934C12.1456 76.0968 13.2457 74.8888 15.0593 73.7275C15.2681 73.5933 15.4714 73.4591 15.6694 73.3251C20.9457 69.6772 22.2737 66.8474 23.2665 64.8972C23.5634 64.289 23.8241 63.7319 24.1261 63.1959C25.1128 61.4662 26.8078 59.2112 28.0954 57.465C29.143 56.0904 30.4295 52.8904 31.0443 50.3721C31.2847 49.4231 31.7273 48.1876 32.1781 46.7073C32.6449 45.1769 33.1188 43.3798 33.3888 41.4159C34.0377 36.4502 33.9468 33.8006 33.9091 31.6873C33.8909 31.0841 33.8655 30.5237 33.8309 29.9644C33.7236 28.1967 33.5366 26.0137 33.1994 23.8286C32.8045 21.2137 32.1828 18.6011 31.5478 16.6734C30.4272 11.5381 28.5927 6.53622 26.0662 1.87347C24.7707 -0.528203 23.7225 -2.96386 23.2143 -5.09572C22.7207 -7.21017 22.8331 -8.86324 23.7666 -9.67797C24.6927 -10.4876 26.4024 -10.3792 28.483 -9.2049C30.569 -8.0221 32.8106 -5.83021 34.5232 -3.10529C37.9691 2.35668 40.6126 8.37551 42.275 14.6765C44.3054 22.3482 44.877 30.4384 43.8808 38.345C43.1872 43.8743 41.7658 49.3159 39.6679 54.4748C39.452 55.006 39.2285 55.5345 38.9981 56.0605C37.4594 60.492 35.3163 64.7269 33.5249 67.5263C32.0505 69.844 30.6758 71.3247 29.483 72.5527C28.6549 73.4018 27.9161 74.117 27.2157 74.9038C26.8389 75.3265 26.3296 75.9011 25.6975 76.5793C24.689 77.6618 23.3788 78.9933 21.8101 80.3891C19.3615 82.5789 16.2917 84.8648 13.1448 86.6C10.8608 87.8709 8.08248 89.0859 5.3688 90.0453C1.49339 91.4346 -2.20942 92.265 -4.01812 92.8781C-7.19731 93.9787 -11.0316 94.5889 -14.4143 94.8344C-17.6458 95.0827 -20.4644 95.0325 -22.0721 95.2325C-23.9951 95.4679 -25.6485 95.3108 -28.0596 94.9415C-29.7321 94.6773 -31.7732 94.3105 -34.5171 93.7228C-37.6861 93.0326 -39.8426 92.2242 -41.6456 91.4998C-44.1764 90.4609 -46.0207 89.5997 -48.9158 88.5965C-52.1341 87.4749 -55.3631 85.859 -57.6485 84.2206C-58.6967 83.4746 -59.8949 82.649 -61.1201 81.7324C-62.7332 80.5287 -64.3749 79.1709 -65.7218 77.7754C-66.8335 76.6247 -67.5904 75.529 -68.2414 74.545C-68.4419 74.2405 -68.6321 73.9467 -68.8184 73.6646C-69.3077 73.1406 -69.7904 72.6069 -70.2665 72.0637C-70.6219 71.6582 -70.9716 71.2496 -71.3157 70.8382C-71.4749 70.7062 -71.6433 70.568 -71.8179 70.4226C-72.6886 69.6989 -73.7673 68.7575 -74.8689 67.4366C-76.6228 65.3236 -77.7744 63.1987 -78.8569 60.9152C-79.6964 59.1348 -80.4924 57.2558 -81.4396 55.1191C-82.0855 53.6624 -82.8229 51.9964 -83.477 50.3137C-84.4569 47.8114 -85.2387 45.2594 -85.5247 43.4333C-85.6333 42.7491 -85.5974 42.137 -85.5534 41.5354C-85.553 41.5327 -85.5525 41.53 -85.5521 41.5273C-85.5491 41.4865 -85.5463 41.4455 -85.5433 41.4047C-86.4371 37.0269 -86.8889 32.5461 -86.8822 28.0528C-86.9088 27.6626 -86.9312 27.2677 -86.9496 26.8759C-87.0421 24.9611 -87.0312 23.0908 -87.1284 21.849C-87.2423 20.5047 -86.9187 17.1647 -86.2006 13.6971C-85.741 11.4244 -85.1258 9.10019 -84.5935 7.20074C-84.2831 6.08844 -83.7386 5.12859 -83.1561 4.15951C-82.6119 3.25517 -82.0377 2.34897 -81.5648 1.28018C-81.3274 0.74402 -81.1053 0.153224 -80.8556 -0.478313C-80.6361 -1.03355 -80.3952 -1.62054 -80.1094 -2.21656C-79.8449 -2.76762 -79.1015 -3.92128 -78.0788 -5.33982C-77.4492 -6.21372 -76.7045 -7.20064 -75.9148 -8.20538C-74.0277 -11.03 -71.922 -13.7014 -69.6114 -16.2012C-69.2151 -16.8039 -68.9003 -17.3645 -68.7053 -17.8709C-68.5645 -18.235 -68.4832 -18.5822 -68.3951 -18.9393C-68.2751 -19.425 -68.1449 -19.9293 -67.8432 -20.5043C-67.6075 -20.9537 -67.229 -21.3814 -66.8947 -21.5762C-66.8794 -21.5851 -66.8642 -21.5936 -66.8491 -21.6016C-66.7108 -21.6749 -66.5819 -21.7112 -66.464 -21.7442C-66.3143 -21.7861 -66.1809 -21.8231 -66.0654 -21.9234C-65.9821 -21.9959 -65.9246 -22.1056 -65.8527 -22.2397C-65.7379 -22.4537 -65.5866 -22.732 -65.2432 -23.018C-63.9728 -24.0772 -62.4303 -25.2028 -60.8893 -26.2251C-59.1697 -27.3702 -57.4378 -28.3981 -56.0654 -29.2281C-54.5279 -30.1646 -52.1739 -31.2172 -49.7702 -32.0999C-48.091 -32.7216 -46.3969 -33.2655 -44.9406 -33.7369C-43.5189 -34.1984 -42.0678 -34.7674 -40.641 -35.2715C-38.9298 -35.8778 -37.2486 -36.3897 -35.763 -36.5409C-35.4629 -36.5714 -35.0602 -36.4612 -34.5607 -36.3169C-34.2066 -36.2146 -33.8017 -36.0952 -33.3512 -35.9947C-31.516 -36.31 -29.6697 -36.5408 -27.816 -36.6882C-27.753 -36.7192 -27.6879 -36.7508 -27.6226 -36.7829C-27.6216 -36.7836 -27.6206 -36.7842 -27.6196 -36.7849C-26.1574 -37.5042 -24.0415 -38.4658 -21.0548 -37.9427C-20.2994 -37.8082 -19.8309 -37.5635 -19.4131 -37.3421C-19.0026 -37.1241 -18.64 -36.9269 -18.0993 -36.858C-17.4853 -36.7796 -16.7507 -36.8529 -15.9439 -36.9163C-14.813 -37.0059 -13.5332 -37.0737 -12.3135 -36.6985C-12.2303 -36.673 -12.141 -36.645 -12.048 -36.6163C-11.1661 -36.3452 -9.86807 -35.9186 -8.64856 -35.2436C-4.80768 -34.3507 -1.05867 -33.1002 2.53379 -31.5219C8.52502 -28.8925 14.0765 -25.3429 18.9425 -21.0949C21.3222 -19.024 23.1189 -16.5306 23.9687 -14.3338C24.8097 -12.1439 24.6799 -10.4672 23.7666 -9.67797C22.8479 -8.88204 21.2242 -8.998 19.2279 -9.75757C17.2163 -10.5346 14.978 -11.8719 12.807 -13.4357C9.27581 -15.9898 5.46493 -18.1063 1.48358 -19.7562C1.26855 -19.8294 1.0528 -19.9022 0.83838 -19.9746C-0.75665 -20.5124 -2.32566 -20.7702 -3.88404 -20.9585C-4.24215 -21.0017 -4.60048 -21.0411 -4.95851 -21.0791Z" fill="#B7410E"/>
<mask id="path-4-outside-1_207_103" maskUnits="userSpaceOnUse" x="10" y="8" width="46" height="60" fill="black">
<rect fill="white" x="10" y="8" width="46" height="60"/>
<path d="M29.96 29.5C28.68 29.5 27.76 29.74 27.2 30.22C26.64 30.7 26.36 31.4 26.36 32.32C26.36 33.6 26.9 34.78 27.98 35.86C30.42 34.14 33.3 33.28 36.62 33.28C38.82 33.28 40.94 33.92 42.98 35.2C45.02 36.44 46.68 37.94 47.96 39.7C49.28 41.46 49.94 43.02 49.94 44.38C49.94 46.02 49.3 47.76 48.02 49.6C46.78 51.4 45.34 52.96 43.7 54.28L37.88 49.06V48.94C40.16 47.46 41.84 46.2 42.92 45.16C44 44.08 44.54 42.96 44.54 41.8C44.54 40.92 44.1 40.22 43.22 39.7C42.38 39.14 41.1 38.86 39.38 38.86C37.1 38.86 35.16 39.54 33.56 40.9C32 42.26 31.22 43.92 31.22 45.88C31.22 48.76 32.46 51.36 34.94 53.68C37.42 56.04 41.12 58.56 46.04 61.24L44.42 63.46C40.46 61.5 37.04 59.6 34.16 57.76C31.32 55.96 28.86 53.84 26.78 51.4C24.74 48.96 23.72 46.3 23.72 43.42C23.72 41.66 24.28 40 25.4 38.44C24.28 37.08 23.42 35.78 22.82 34.54C22.22 33.3 21.92 32 21.92 30.64C21.92 25.36 23.96 22.72 28.04 22.72H38.54V18.64H16.4L13.64 13.18V11.86H49.88L52.76 17.38V18.64H46.52V29.5H29.96Z"/>
</mask>
<path d="M29.96 29.5C28.68 29.5 27.76 29.74 27.2 30.22C26.64 30.7 26.36 31.4 26.36 32.32C26.36 33.6 26.9 34.78 27.98 35.86C30.42 34.14 33.3 33.28 36.62 33.28C38.82 33.28 40.94 33.92 42.98 35.2C45.02 36.44 46.68 37.94 47.96 39.7C49.28 41.46 49.94 43.02 49.94 44.38C49.94 46.02 49.3 47.76 48.02 49.6C46.78 51.4 45.34 52.96 43.7 54.28L37.88 49.06V48.94C40.16 47.46 41.84 46.2 42.92 45.16C44 44.08 44.54 42.96 44.54 41.8C44.54 40.92 44.1 40.22 43.22 39.7C42.38 39.14 41.1 38.86 39.38 38.86C37.1 38.86 35.16 39.54 33.56 40.9C32 42.26 31.22 43.92 31.22 45.88C31.22 48.76 32.46 51.36 34.94 53.68C37.42 56.04 41.12 58.56 46.04 61.24L44.42 63.46C40.46 61.5 37.04 59.6 34.16 57.76C31.32 55.96 28.86 53.84 26.78 51.4C24.74 48.96 23.72 46.3 23.72 43.42C23.72 41.66 24.28 40 25.4 38.44C24.28 37.08 23.42 35.78 22.82 34.54C22.22 33.3 21.92 32 21.92 30.64C21.92 25.36 23.96 22.72 28.04 22.72H38.54V18.64H16.4L13.64 13.18V11.86H49.88L52.76 17.38V18.64H46.52V29.5H29.96Z" fill="white"/>
<path d="M27.2 30.22L29.1524 32.4978L29.1524 32.4978L27.2 30.22ZM27.98 35.86L25.8587 37.9813L27.6444 39.767L29.7085 38.312L27.98 35.86ZM42.98 35.2L41.3855 37.7412L41.4036 37.7525L41.4218 37.7636L42.98 35.2ZM47.96 39.7L45.5338 41.4645L45.5468 41.4824L45.56 41.5L47.96 39.7ZM48.02 49.6L45.5573 47.8868L45.5495 47.8981L48.02 49.6ZM43.7 54.28L41.6969 56.5133L43.5949 58.2156L45.581 56.617L43.7 54.28ZM37.88 49.06H34.88V50.3992L35.8769 51.2933L37.88 49.06ZM37.88 48.94L36.2466 46.4237L34.88 47.3107V48.94H37.88ZM42.92 45.16L45.0009 47.321L45.0213 47.3013L45.0413 47.2813L42.92 45.16ZM43.22 39.7L41.5559 42.1962L41.6237 42.2413L41.6938 42.2828L43.22 39.7ZM33.56 40.9L31.6171 38.6142L31.6027 38.6263L31.5886 38.6387L33.56 40.9ZM34.94 53.68L37.0081 51.5068L36.9988 51.4979L36.9895 51.4892L34.94 53.68ZM46.04 61.24L48.4634 63.0084L50.4813 60.2431L47.4751 58.6055L46.04 61.24ZM44.42 63.46L43.0892 66.1487L45.3539 67.2696L46.8434 65.2284L44.42 63.46ZM34.16 57.76L35.7752 55.2319L35.766 55.2261L34.16 57.76ZM26.78 51.4L24.4784 53.3243L24.4876 53.3353L24.497 53.3462L26.78 51.4ZM25.4 38.44L27.837 40.1896L29.1831 38.3146L27.7158 36.5329L25.4 38.44ZM22.82 34.54L20.1195 35.8467L20.1195 35.8467L22.82 34.54ZM38.54 22.72V25.72H41.54V22.72H38.54ZM38.54 18.64H41.54V15.64H38.54V18.64ZM16.4 18.64L13.7226 19.9934L14.555 21.64H16.4V18.64ZM13.64 13.18H10.64V13.8952L10.9626 14.5334L13.64 13.18ZM13.64 11.86V8.86H10.64V11.86H13.64ZM49.88 11.86L52.5398 10.4723L51.6986 8.86H49.88V11.86ZM52.76 17.38H55.76V16.6444L55.4198 15.9923L52.76 17.38ZM52.76 18.64V21.64H55.76V18.64H52.76ZM46.52 18.64V15.64H43.52V18.64H46.52ZM46.52 29.5V32.5H49.52V29.5H46.52ZM29.96 29.5V26.5C28.4426 26.5 26.6289 26.7583 25.2476 27.9422L27.2 30.22L29.1524 32.4978C29.0016 32.627 28.9249 32.62 29.0673 32.5829C29.2116 32.5452 29.4936 32.5 29.96 32.5V29.5ZM27.2 30.22L25.2476 27.9422C23.863 29.1291 23.36 30.7591 23.36 32.32H26.36H29.36C29.36 32.16 29.3846 32.1461 29.3554 32.2192C29.3405 32.2565 29.3153 32.3065 29.2765 32.361C29.2375 32.4158 29.1941 32.462 29.1524 32.4978L27.2 30.22ZM26.36 32.32H23.36C23.36 34.5466 24.3326 36.4553 25.8587 37.9813L27.98 35.86L30.1013 33.7387C29.4674 33.1047 29.36 32.6534 29.36 32.32H26.36ZM27.98 35.86L29.7085 38.312C31.5865 36.9882 33.8464 36.28 36.62 36.28V33.28V30.28C32.7536 30.28 29.2536 31.2918 26.2515 33.408L27.98 35.86ZM36.62 33.28V36.28C38.203 36.28 39.7764 36.7316 41.3855 37.7412L42.98 35.2L44.5745 32.6588C42.1036 31.1084 39.437 30.28 36.62 30.28V33.28ZM42.98 35.2L41.4218 37.7636C43.1555 38.8174 44.5091 40.0556 45.5338 41.4645L47.96 39.7L50.3862 37.9355C48.8509 35.8244 46.8845 34.0626 44.5382 32.6364L42.98 35.2ZM47.96 39.7L45.56 41.5C46.7123 43.0363 46.94 43.9608 46.94 44.38H49.94H52.94C52.94 42.0792 51.8477 39.8837 50.36 37.9L47.96 39.7ZM49.94 44.38H46.94C46.94 45.2198 46.6127 46.3697 45.5573 47.8868L48.02 49.6L50.4827 51.3132C51.9873 49.1503 52.94 46.8202 52.94 44.38H49.94ZM48.02 49.6L45.5495 47.8981C44.4679 49.4682 43.2242 50.8119 41.819 51.943L43.7 54.28L45.581 56.617C47.4558 55.1081 49.0921 53.3318 50.4905 51.3019L48.02 49.6ZM43.7 54.28L45.7031 52.0467L39.8831 46.8267L37.88 49.06L35.8769 51.2933L41.6969 56.5133L43.7 54.28ZM37.88 49.06H40.88V48.94H37.88H34.88V49.06H37.88ZM37.88 48.94L39.5134 51.4563C41.8469 49.9416 43.715 48.5593 45.0009 47.321L42.92 45.16L40.8391 42.999C39.965 43.8407 38.4731 44.9784 36.2466 46.4237L37.88 48.94ZM42.92 45.16L45.0413 47.2813C46.499 45.8236 47.54 43.9837 47.54 41.8H44.54H41.54C41.54 41.9363 41.501 42.3364 40.7987 43.0387L42.92 45.16ZM44.54 41.8H47.54C47.54 39.6701 46.3644 38.0734 44.7462 37.1172L43.22 39.7L41.6938 42.2828C41.8177 42.356 41.7577 42.3509 41.6701 42.2115C41.627 42.143 41.5909 42.0628 41.5675 41.9786C41.5444 41.8956 41.54 41.8322 41.54 41.8H44.54ZM43.22 39.7L44.8841 37.2038C43.3136 36.1568 41.3213 35.86 39.38 35.86V38.86V41.86C40.8787 41.86 41.4464 42.1231 41.5559 42.1962L43.22 39.7ZM39.38 38.86V35.86C36.4539 35.86 33.8075 36.7523 31.6171 38.6142L33.56 40.9L35.5029 43.1858C36.5125 42.3277 37.7461 41.86 39.38 41.86V38.86ZM33.56 40.9L31.5886 38.6387C29.4166 40.5322 28.22 42.9994 28.22 45.88H31.22H34.22C34.22 44.8406 34.5834 43.9878 35.5314 43.1613L33.56 40.9ZM31.22 45.88H28.22C28.22 49.7394 29.9223 53.0941 32.8905 55.8708L34.94 53.68L36.9895 51.4892C34.9977 49.6259 34.22 47.7806 34.22 45.88H31.22ZM34.94 53.68L32.8719 55.8532C35.6235 58.4717 39.5808 61.1378 44.6049 63.8745L46.04 61.24L47.4751 58.6055C42.6592 55.9822 39.2165 53.6083 37.0081 51.5068L34.94 53.68ZM46.04 61.24L43.6166 59.4716L41.9966 61.6916L44.42 63.46L46.8434 65.2284L48.4634 63.0084L46.04 61.24ZM44.42 63.46L45.7508 60.7713C41.8618 58.8465 38.5413 56.9992 35.7752 55.2319L34.16 57.76L32.5448 60.2881C35.5387 62.2008 39.0582 64.1535 43.0892 66.1487L44.42 63.46ZM34.16 57.76L35.766 55.2261C33.1674 53.5791 30.9388 51.6542 29.063 49.4538L26.78 51.4L24.497 53.3462C26.7812 56.0258 29.4726 58.3409 32.554 60.2939L34.16 57.76ZM26.78 51.4L29.0816 49.4757C27.4425 47.5152 26.72 45.5219 26.72 43.42H23.72H20.72C20.72 47.0781 22.0375 50.4048 24.4784 53.3243L26.78 51.4ZM23.72 43.42H26.72C26.72 42.3454 27.048 41.2886 27.837 40.1896L25.4 38.44L22.963 36.6904C21.512 38.7114 20.72 40.9746 20.72 43.42H23.72ZM25.4 38.44L27.7158 36.5329C26.7076 35.3087 25.9924 34.2087 25.5205 33.2333L22.82 34.54L20.1195 35.8467C20.8476 37.3513 21.8524 38.8513 23.0842 40.3471L25.4 38.44ZM22.82 34.54L25.5205 33.2333C25.115 32.3953 24.92 31.5414 24.92 30.64H21.92H18.92C18.92 32.4586 19.325 34.2047 20.1195 35.8467L22.82 34.54ZM21.92 30.64H24.92C24.92 28.3029 25.3858 27.1012 25.8239 26.5343C26.1485 26.1142 26.699 25.72 28.04 25.72V22.72V19.72C25.301 19.72 22.7915 20.6458 21.0761 22.8657C19.4742 24.9388 18.92 27.6971 18.92 30.64H21.92ZM28.04 22.72V25.72H38.54V22.72V19.72H28.04V22.72ZM38.54 22.72H41.54V18.64H38.54H35.54V22.72H38.54ZM38.54 18.64V15.64H16.4V18.64V21.64H38.54V18.64ZM16.4 18.64L19.0774 17.2866L16.3174 11.8266L13.64 13.18L10.9626 14.5334L13.7226 19.9934L16.4 18.64ZM13.64 13.18H16.64V11.86H13.64H10.64V13.18H13.64ZM13.64 11.86V14.86H49.88V11.86V8.86H13.64V11.86ZM49.88 11.86L47.2202 13.2477L50.1002 18.7677L52.76 17.38L55.4198 15.9923L52.5398 10.4723L49.88 11.86ZM52.76 17.38H49.76V18.64H52.76H55.76V17.38H52.76ZM52.76 18.64V15.64H46.52V18.64V21.64H52.76V18.64ZM46.52 18.64H43.52V29.5H46.52H49.52V18.64H46.52ZM46.52 29.5V26.5H29.96V29.5V32.5H46.52V29.5Z" fill="black" mask="url(#path-4-outside-1_207_103)"/>
</g>
</svg>
