<svg width="133" height="135" viewBox="0 0 133 135" fill="none" xmlns="http://www.w3.org/2000/svg">
<path d="M82.985 17.864C80.2826 17.5214 75.368 16.1601 72.5509 15.7408C72.4996 15.7323 72.4483 15.724 72.397 15.7157C71.7334 15.6055 71.101 15.5326 70.3589 15.4631C68.586 15.328 66.2025 15.0428 61.1434 15.0805C59.681 15.2246 58.2263 15.4215 56.7782 15.6703C47.0937 17.3236 37.8725 21.4891 30.1951 27.8108C25.4747 31.6852 21.3819 36.3071 18.1312 41.5322C18.0323 41.7105 17.9328 41.8923 17.8335 42.0764C15.8717 45.6279 14.0894 50.326 13.0263 53.3067C11.6416 57.0932 10.9673 59.7881 10.4603 62.013C8.33677 74.8802 10.9543 88.6798 18.0638 99.9099C19.5104 102.211 21.1229 104.394 22.9042 106.463C23.8568 107.569 24.8362 108.619 25.8707 109.643C28.5975 112.343 31.6074 114.752 34.8336 116.815C36.7679 117.927 38.6866 118.841 40.4918 119.594C43.0315 120.655 45.3487 121.401 47.2563 122.014C51.8385 123.519 57.1816 124.784 61.248 125.258C61.911 125.34 62.5389 125.406 63.1206 125.457C66.3685 125.544 69.6179 125.346 72.817 124.871C73.0371 124.893 73.2591 124.916 73.4855 124.938C76.3087 125.19 79.7654 124.63 84.8723 122.859C87.0953 122.073 89.6214 121.037 92.4922 119.586C94.3402 118.642 95.3697 118.302 96.2315 118.019C96.4834 117.935 96.7218 117.853 96.9523 117.761C97.7457 117.444 98.3966 116.807 99.1367 116.037C100.089 115.04 101.189 113.832 103.003 112.671C103.212 112.536 103.415 112.402 103.613 112.268C108.889 108.62 110.217 105.79 111.21 103.84C111.507 103.232 111.768 102.675 112.07 102.139C113.056 100.409 114.751 98.1543 116.039 96.4081C117.087 95.0335 118.373 91.8335 118.988 89.3153C119.228 88.3662 119.671 87.1307 120.122 85.6504C120.588 84.1201 121.062 82.3229 121.332 80.3591C121.981 75.3934 121.89 72.7437 121.853 70.6304C121.834 70.0272 121.809 69.4669 121.774 68.9075C121.667 67.1398 121.48 64.9569 121.143 62.7718C120.748 60.1569 120.126 57.5442 119.491 55.6166C118.371 50.4812 116.536 45.4794 114.01 40.8166C112.714 38.4149 111.666 35.9793 111.158 33.8474C110.664 31.733 110.777 30.0799 111.71 29.2652C112.636 28.4555 114.346 28.5639 116.427 29.7382C118.512 30.921 120.754 33.1129 122.467 35.8379C125.913 41.2998 128.556 47.3186 130.218 53.6197C132.249 61.2914 132.82 69.3815 131.824 77.2882C131.131 82.8175 129.709 88.2591 127.611 93.418C127.396 93.9491 127.172 94.4777 126.942 95.0036C125.403 99.4352 123.26 103.67 121.468 106.469C119.994 108.787 118.619 110.268 117.426 111.496C116.598 112.345 115.86 113.06 115.159 113.847C114.782 114.27 114.273 114.844 113.641 115.522C112.632 116.605 111.322 117.936 109.754 119.332C107.305 121.522 104.235 123.808 101.088 125.543C98.8042 126.814 96.026 128.029 93.3123 128.988C89.4369 130.378 85.7341 131.208 83.9254 131.821C80.7462 132.922 76.9119 133.532 73.5292 133.778C70.2977 134.026 67.4791 133.976 65.8714 134.176C63.9484 134.411 62.295 134.254 59.8839 133.885C58.2114 133.62 56.1703 133.254 53.4263 132.666C50.2574 131.976 48.1008 131.167 46.2979 130.443C43.7671 129.404 41.9228 128.543 39.0276 127.54C35.8094 126.418 32.5803 124.802 30.295 123.164C29.2468 122.418 28.0486 121.592 26.8234 120.676C25.2103 119.472 23.5686 118.114 22.2217 116.719C21.11 115.568 20.3531 114.472 19.702 113.488C19.5016 113.184 19.3114 112.89 19.1251 112.608C18.6358 112.084 18.1531 111.55 17.677 111.007C17.3216 110.601 16.9719 110.193 16.6278 109.781C16.4686 109.649 16.3002 109.511 16.1256 109.366C15.2548 108.642 14.1762 107.701 13.0746 106.38C11.3206 104.267 10.1691 102.142 9.08659 99.8583C8.24704 98.078 7.45109 96.199 6.50387 94.0622C5.85802 92.6055 5.12062 90.9395 4.46652 89.2568C3.48659 86.7545 2.70482 84.2025 2.41875 82.3764C2.31014 81.6922 2.34605 81.0801 2.39008 80.4786C2.39052 80.4759 2.39097 80.4732 2.39142 80.4705C2.39442 80.4296 2.3972 80.3887 2.40023 80.3479C1.50638 75.9701 1.05463 71.4892 1.06123 66.996C1.03464 66.6057 1.01226 66.2108 0.993864 65.819C0.901356 63.9042 0.91231 62.0339 0.815061 60.7921C0.701148 59.4479 1.02473 56.1079 1.74291 52.6402C2.20251 50.3675 2.81768 48.0433 3.35002 46.1439C3.66039 45.0316 4.20485 44.0717 4.78742 43.1026C5.33163 42.1983 5.90577 41.2921 6.37869 40.2233C6.61609 39.6872 6.83818 39.0964 7.08789 38.4648C7.30735 37.9096 7.54829 37.3226 7.83404 36.7266C8.09854 36.1755 8.84203 35.0219 9.86465 33.6033C10.4943 32.7294 11.239 31.7425 12.0287 30.7378C13.9157 27.9131 16.0215 25.2418 18.3321 22.7419C18.7284 22.1392 19.0432 21.5786 19.2382 21.0722C19.379 20.7082 19.4603 20.361 19.5483 20.0039C19.6684 19.5181 19.7985 19.0138 20.1003 18.4388C20.336 17.9895 20.7145 17.5617 21.0488 17.3669C21.0641 17.358 21.0793 17.3496 21.0944 17.3416C21.2327 17.2682 21.3616 17.2319 21.4795 17.1989C21.6292 17.157 21.7626 17.1201 21.8781 17.0197C21.9614 16.9473 22.0189 16.8376 22.0908 16.7034C22.2056 16.4894 22.3569 16.2111 22.7003 15.9252C23.9707 14.8659 25.5132 13.7403 27.0542 12.7181C28.7738 11.5729 30.5056 10.545 31.878 9.71505C33.4156 8.77855 35.7696 7.72593 38.1733 6.84324C39.8525 6.22156 41.5466 5.67759 43.0029 5.20627C44.4246 4.74477 45.8757 4.17573 47.3024 3.67161C49.0137 3.06535 50.6949 2.55347 52.1805 2.40224C52.4806 2.37173 52.8833 2.4819 53.3828 2.62625C53.7368 2.72858 54.1418 2.84793 54.5923 2.94842C56.4275 2.6331 58.2738 2.40237 60.1275 2.25497C60.1905 2.22391 60.2556 2.19233 60.3208 2.16028C60.3218 2.15959 60.3229 2.15889 60.3239 2.15819C61.7861 1.43897 63.902 0.477357 66.8886 1.00043C67.6441 1.13492 68.1126 1.37963 68.5304 1.60099C68.9409 1.81907 69.3035 2.01626 69.8441 2.08515C70.4581 2.16357 71.1928 2.0902 71.9996 2.02689C73.1305 1.93728 74.4103 1.86947 75.63 2.2446C75.7132 2.27016 75.8025 2.29811 75.8955 2.32683C76.7773 2.59792 78.0754 3.02452 79.2949 3.69956C83.1358 4.59243 86.8848 5.84289 90.4773 7.42122C96.4685 10.0506 102.02 13.6002 106.886 17.8482C109.266 19.9192 111.062 22.4125 111.912 24.6093C112.753 26.7993 112.623 28.476 111.71 29.2652C110.791 30.0611 109.168 29.9451 107.171 29.1856C105.16 28.4085 102.922 27.0713 100.75 25.5075C97.2193 22.9533 93.4084 20.8369 89.4271 19.1869C89.212 19.1138 88.9963 19.0409 88.7819 18.9685C87.1868 18.4308 85.6178 18.1729 84.0594 17.9846C83.7013 17.9415 83.343 17.9021 82.985 17.864Z" fill="#B7410E"/>
</svg>
